<svg xmlns="http://www.w3.org/2000/svg" xmlns:xlink="http://www.w3.org/1999/xlink" width="50" zoomAndPan="magnify" viewBox="0 0 37.5 37.499999" height="50" preserveAspectRatio="xMidYMid meet" version="1.0"><defs><clipPath id="145d590427"><path d="M 1.320312 0 L 35.363281 0 L 35.363281 37.007812 L 1.320312 37.007812 Z M 1.320312 0 " clip-rule="nonzero"/></clipPath></defs><g clip-path="url(#145d590427)"><path fill="#01b8b0" d="M 1.320312 0 L 1.320312 31.71875 L 15.976562 31.71875 C 17.8125 34.871094 21.222656 37.007812 25.113281 37.007812 C 30.925781 37.007812 35.683594 32.25 35.683594 26.433594 C 35.683594 21.53125 32.300781 17.394531 27.753906 16.210938 L 27.753906 0 Z M 3.964844 2.644531 L 25.113281 2.644531 L 25.113281 15.859375 C 19.296875 15.859375 14.539062 20.617188 14.539062 26.433594 C 14.539062 27.347656 14.667969 28.230469 14.890625 29.078125 L 3.964844 29.078125 Z M 6.609375 7.929688 L 6.609375 10.574219 L 22.46875 10.574219 L 22.46875 7.929688 Z M 6.609375 15.859375 L 6.609375 18.503906 L 14.554688 18.503906 C 15.308594 17.5 16.203125 16.613281 17.203125 15.859375 Z M 25.113281 18.503906 C 29.472656 18.503906 33.042969 22.070312 33.042969 26.433594 C 33.042969 30.792969 29.472656 34.363281 25.113281 34.363281 C 20.75 34.363281 17.179688 30.792969 17.179688 26.433594 C 17.179688 22.070312 20.75 18.503906 25.113281 18.503906 Z M 6.609375 21.148438 L 6.609375 23.789062 L 12.160156 23.789062 C 12.347656 22.871094 12.636719 21.988281 13.003906 21.148438 Z M 29.078125 22.867188 L 24.714844 27.226562 L 21.675781 24.1875 L 19.824219 26.035156 L 24.714844 30.925781 L 30.925781 24.714844 Z M 29.078125 22.867188 " fill-opacity="1" fill-rule="nonzero"/></g></svg>