<svg xmlns="http://www.w3.org/2000/svg" xmlns:xlink="http://www.w3.org/1999/xlink" width="50" zoomAndPan="magnify" viewBox="0 0 37.5 37.499999" height="50" preserveAspectRatio="xMidYMid meet" version="1.0"><defs><clipPath id="b71a0c2e78"><path d="M 5.472656 0 L 31.378906 0 L 31.378906 37 L 5.472656 37 Z M 5.472656 0 " clip-rule="nonzero"/></clipPath></defs><path fill="#01b8b0" d="M 26.203125 2.089844 L 10.796875 2.089844 C 8.992188 2.089844 7.519531 3.558594 7.519531 5.371094 L 7.519531 31.640625 C 7.519531 33.449219 8.992188 34.921875 10.796875 34.921875 L 26.203125 34.921875 C 28.011719 34.921875 29.484375 33.449219 29.484375 31.640625 L 29.484375 5.371094 C 29.484375 3.5625 28.011719 2.089844 26.203125 2.089844 Z M 18.5 5.277344 C 21.246094 5.277344 23.472656 7.503906 23.472656 10.246094 C 23.472656 12.992188 21.246094 15.222656 18.5 15.222656 C 15.757812 15.222656 13.53125 12.996094 13.53125 10.25 C 13.53125 7.503906 15.757812 5.277344 18.5 5.277344 Z M 13.308594 17.289062 L 23.691406 17.289062 L 23.691406 18.027344 L 13.308594 18.027344 Z M 27.296875 23.808594 L 9.761719 23.808594 L 9.761719 23.070312 L 27.296875 23.070312 Z M 27.296875 20.921875 L 9.761719 20.921875 L 9.761719 20.179688 L 27.296875 20.179688 Z M 27.296875 20.921875 " fill-opacity="1" fill-rule="nonzero"/><g clip-path="url(#b71a0c2e78)"><path fill="#01b8b0" d="M 31.339844 3.949219 C 31.230469 3.558594 31.082031 3.1875 30.894531 2.835938 C 29.992188 1.15625 28.214844 0.0117188 26.175781 0.0117188 L 10.824219 0.0117188 C 7.871094 0.0117188 5.472656 2.410156 5.472656 5.359375 L 5.472656 31.644531 C 5.472656 34.199219 7.261719 36.335938 9.65625 36.871094 C 9.910156 36.925781 10.171875 36.964844 10.4375 36.984375 C 10.566406 36.992188 10.695312 36.996094 10.824219 36.996094 L 26.175781 36.996094 C 29.132812 36.996094 31.527344 34.601562 31.527344 31.644531 L 31.527344 5.359375 C 31.527344 4.871094 31.460938 4.398438 31.339844 3.949219 Z M 30.257812 31.640625 C 30.257812 33.875 28.441406 35.691406 26.203125 35.691406 L 10.796875 35.691406 C 8.5625 35.691406 6.746094 33.875 6.746094 31.640625 L 6.746094 5.371094 C 6.746094 3.132812 8.5625 1.316406 10.796875 1.316406 L 26.203125 1.316406 C 28.441406 1.316406 30.257812 3.132812 30.257812 5.371094 Z M 30.257812 31.640625 " fill-opacity="1" fill-rule="nonzero"/></g><path fill="#01b8b0" d="M 19.722656 7.609375 C 19.285156 7.609375 18.851562 7.769531 18.5 8.089844 C 18.152344 7.769531 17.714844 7.609375 17.28125 7.609375 C 16.800781 7.609375 16.320312 7.800781 15.957031 8.1875 C 15.257812 8.921875 15.226562 10.09375 15.859375 10.867188 C 15.890625 10.90625 15.921875 10.945312 15.957031 10.980469 L 18.5 13.664062 L 21.046875 10.980469 C 21.082031 10.945312 21.113281 10.90625 21.144531 10.867188 C 21.773438 10.09375 21.742188 8.921875 21.046875 8.1875 C 20.679688 7.800781 20.203125 7.609375 19.722656 7.609375 Z M 21.328125 9.632812 L 20.511719 9.632812 L 20.511719 10.449219 L 19.492188 10.449219 L 19.492188 9.632812 L 18.675781 9.632812 L 18.675781 8.613281 L 19.492188 8.613281 L 19.492188 7.796875 L 20.511719 7.796875 L 20.511719 8.613281 L 21.328125 8.613281 Z M 21.328125 9.632812 " fill-opacity="1" fill-rule="nonzero"/></svg>