<svg xmlns="http://www.w3.org/2000/svg" xmlns:xlink="http://www.w3.org/1999/xlink" width="50" zoomAndPan="magnify" viewBox="0 0 37.5 37.499999" height="50" preserveAspectRatio="xMidYMid meet" version="1.0"><defs><clipPath id="872c17a2aa"><path d="M 16 0 L 37.007812 0 L 37.007812 21 L 16 21 Z M 16 0 " clip-rule="nonzero"/></clipPath></defs><g clip-path="url(#872c17a2aa)"><path fill="#01b8b0" d="M 31.054688 5.953125 C 27.664062 2.5625 22.980469 0.554688 17.132812 -0.015625 L 16.988281 1.441406 C 22.492188 1.980469 26.875 3.847656 30.015625 6.992188 C 33.160156 10.132812 35.027344 14.515625 35.5625 20.019531 L 37.019531 19.875 C 36.449219 14.027344 34.441406 9.34375 31.054688 5.953125 " fill-opacity="1" fill-rule="nonzero"/></g><path fill="#01b8b0" d="M 25.140625 20.101562 L 26.589844 19.894531 C 26.175781 16.996094 25.210938 14.773438 23.71875 13.285156 C 22.234375 11.796875 20.007812 10.832031 17.113281 10.417969 L 16.90625 11.867188 C 19.480469 12.234375 21.425781 13.0625 22.683594 14.320312 C 23.945312 15.582031 24.773438 17.523438 25.140625 20.101562 " fill-opacity="1" fill-rule="nonzero"/><path fill="#01b8b0" d="M 17.117188 5.1875 L 16.953125 6.644531 C 20.992188 7.105469 24.152344 8.457031 26.351562 10.652344 C 28.550781 12.851562 29.898438 16.015625 30.363281 20.054688 L 31.816406 19.886719 C 31.316406 15.511719 29.824219 12.054688 27.386719 9.617188 C 24.949219 7.179688 21.496094 5.691406 17.117188 5.1875 " fill-opacity="1" fill-rule="nonzero"/><path fill="#01b8b0" d="M 27.183594 25.160156 C 26.035156 24.007812 24.171875 24.007812 23.023438 25.160156 L 20.8125 27.367188 C 20.445312 27.734375 19.878906 27.808594 19.421875 27.558594 C 17.398438 26.457031 15.46875 25.03125 13.722656 23.28125 C 11.976562 21.539062 10.546875 19.609375 9.445312 17.585938 C 9.195312 17.125 9.269531 16.5625 9.640625 16.195312 L 11.847656 13.984375 C 12.996094 12.835938 12.996094 10.96875 11.847656 9.824219 L 8.394531 6.367188 C 7.246094 5.21875 5.382812 5.21875 4.230469 6.367188 L 1.722656 8.878906 C 0.515625 10.082031 0.015625 11.824219 0.410156 13.480469 C 1.664062 18.789062 4.464844 23.957031 8.753906 28.25 C 13.050781 32.542969 18.21875 35.339844 23.523438 36.597656 C 25.179688 36.988281 26.925781 36.488281 28.128906 35.285156 L 30.636719 32.773438 C 31.789062 31.625 31.789062 29.761719 30.636719 28.609375 L 27.183594 25.160156 " fill-opacity="1" fill-rule="nonzero"/></svg>