<svg xmlns="http://www.w3.org/2000/svg" xmlns:xlink="http://www.w3.org/1999/xlink" width="50" zoomAndPan="magnify" viewBox="0 0 37.5 37.499999" height="50" preserveAspectRatio="xMidYMid meet" version="1.0"><defs><clipPath id="6f7b320348"><path d="M 4.308594 8.636719 L 32.691406 8.636719 L 32.691406 35.484375 L 4.308594 35.484375 Z M 4.308594 8.636719 " clip-rule="nonzero"/></clipPath><clipPath id="b6294d05b7"><path d="M 0 1.527344 L 37 1.527344 L 37 20 L 0 20 Z M 0 1.527344 " clip-rule="nonzero"/></clipPath></defs><g clip-path="url(#6f7b320348)"><path fill="#01b8b0" d="M 32.503906 20.761719 L 19.109375 8.925781 C 18.761719 8.621094 18.238281 8.621094 17.890625 8.925781 L 4.496094 20.761719 C 4.394531 20.847656 4.339844 20.972656 4.339844 21.105469 L 4.339844 35.023438 C 4.339844 35.277344 4.542969 35.484375 4.796875 35.484375 L 14.214844 35.484375 C 14.46875 35.484375 14.675781 35.277344 14.675781 35.023438 L 14.675781 26.136719 C 14.675781 25.121094 15.496094 24.296875 16.511719 24.296875 L 20.488281 24.296875 C 21.503906 24.296875 22.324219 25.121094 22.324219 26.136719 L 22.324219 35.023438 C 22.324219 35.277344 22.53125 35.484375 22.785156 35.484375 L 32.199219 35.484375 C 32.453125 35.484375 32.660156 35.277344 32.660156 35.023438 L 32.660156 21.105469 C 32.660156 20.972656 32.605469 20.847656 32.503906 20.761719 " fill-opacity="1" fill-rule="nonzero"/></g><g clip-path="url(#b6294d05b7)"><path fill="#01b8b0" d="M 36.195312 16.167969 L 20.925781 2.746094 C 19.539062 1.53125 17.460938 1.53125 16.074219 2.746094 L 0.804688 16.167969 C 0.0507812 16.832031 0.0117188 17.992188 0.722656 18.699219 C 1.371094 19.347656 2.410156 19.378906 3.09375 18.777344 L 17.285156 6.277344 C 17.980469 5.667969 19.019531 5.667969 19.714844 6.277344 L 33.902344 18.777344 C 34.589844 19.378906 35.628906 19.347656 36.277344 18.699219 C 36.984375 17.992188 36.949219 16.832031 36.195312 16.167969 " fill-opacity="1" fill-rule="nonzero"/></g></svg>