<svg xmlns="http://www.w3.org/2000/svg" xmlns:xlink="http://www.w3.org/1999/xlink" width="50" zoomAndPan="magnify" viewBox="0 0 37.5 37.499999" height="50" preserveAspectRatio="xMidYMid meet" version="1.0"><defs><clipPath id="1fd0c9cbe3"><path d="M 2.019531 12 L 13 12 L 13 21 L 2.019531 21 Z M 2.019531 12 " clip-rule="nonzero"/></clipPath></defs><path fill="#737373" d="M 32.269531 24.1875 C 32.269531 23.480469 31.695312 22.90625 30.988281 22.90625 L 16.84375 22.90625 C 16.136719 22.90625 15.5625 23.480469 15.5625 24.1875 L 15.5625 35.621094 C 15.5625 36.328125 16.136719 36.902344 16.84375 36.902344 L 30.988281 36.902344 C 31.695312 36.902344 32.269531 36.328125 32.269531 35.621094 Z M 32.269531 24.1875 " fill-opacity="1" fill-rule="nonzero"/><path fill="#737373" d="M 34.976562 13.804688 C 34.976562 13.09375 34.402344 12.519531 33.695312 12.519531 L 16.84375 12.519531 C 16.136719 12.519531 15.5625 13.09375 15.5625 13.804688 L 15.5625 19.367188 C 15.5625 20.074219 16.136719 20.648438 16.84375 20.648438 L 33.695312 20.648438 C 34.402344 20.648438 34.976562 20.074219 34.976562 19.367188 Z M 34.976562 13.804688 " fill-opacity="1" fill-rule="nonzero"/><path fill="#737373" d="M 12.402344 35.621094 C 12.402344 36.328125 11.828125 36.902344 11.121094 36.902344 L 6.007812 36.902344 C 5.300781 36.902344 4.726562 36.328125 4.726562 35.621094 L 4.726562 24.1875 C 4.726562 23.480469 5.300781 22.90625 6.007812 22.90625 L 11.121094 22.90625 C 11.828125 22.90625 12.402344 23.480469 12.402344 24.1875 Z M 12.402344 35.621094 " fill-opacity="1" fill-rule="nonzero"/><g clip-path="url(#1fd0c9cbe3)"><path fill="#737373" d="M 12.402344 19.367188 C 12.402344 20.074219 11.828125 20.648438 11.121094 20.648438 L 3.300781 20.648438 C 2.59375 20.648438 2.019531 20.074219 2.019531 19.367188 L 2.019531 13.804688 C 2.019531 13.09375 2.59375 12.519531 3.300781 12.519531 L 11.121094 12.519531 C 11.828125 12.519531 12.402344 13.09375 12.402344 13.804688 Z M 12.402344 19.367188 " fill-opacity="1" fill-rule="nonzero"/></g><path fill="#737373" d="M 31.015625 2.1875 C 30.265625 0.890625 28.710938 0.117188 26.859375 0.117188 C 22.636719 0.117188 19.644531 3.972656 18.175781 6.402344 C 16.703125 3.972656 13.710938 0.144531 9.496094 0.144531 C 6.824219 0.144531 4.886719 1.75 4.886719 3.933594 C 4.886719 7.800781 9.253906 10.324219 18.035156 10.324219 C 26.816406 10.324219 31.46875 7.078125 31.46875 3.964844 C 31.46875 3.34375 31.332031 2.738281 31.015625 2.1875 Z M 9.453125 6.039062 C 7.976562 5.28125 7.449219 4.429688 7.449219 3.882812 C 7.449219 3.1875 8.308594 2.683594 9.496094 2.683594 C 12.355469 2.683594 14.617188 5.523438 15.84375 7.5 C 12.554688 7.289062 10.578125 6.617188 9.453125 6.039062 Z M 28.707031 4.53125 C 27.964844 5.820312 25.429688 7.183594 20.523438 7.5 C 21.761719 5.523438 24.03125 2.683594 26.859375 2.683594 C 27.949219 2.683594 28.574219 3.089844 28.792969 3.46875 C 28.96875 3.769531 28.9375 4.128906 28.707031 4.53125 Z M 28.707031 4.53125 " fill-opacity="1" fill-rule="nonzero"/></svg>