<svg xmlns="http://www.w3.org/2000/svg" xmlns:xlink="http://www.w3.org/1999/xlink" width="50" zoomAndPan="magnify" viewBox="0 0 37.5 37.499999" height="50" preserveAspectRatio="xMidYMid meet" version="1.0"><defs><clipPath id="a8d133af86"><path d="M 0 0 L 37.007812 0 L 37.007812 37.007812 L 0 37.007812 Z M 0 0 " clip-rule="nonzero"/></clipPath></defs><g clip-path="url(#a8d133af86)"><path fill="#737373" d="M 31.488281 26.574219 C 34.898438 29.027344 37.007812 32.4375 37.007812 36.21875 C 37.007812 36.65625 36.65625 37.007812 36.226562 37.007812 L 0.78125 37.007812 C 0.351562 37.007812 0 36.65625 0 36.21875 C 0 32.4375 2.109375 29.027344 5.519531 26.574219 C 8.855469 24.179688 13.445312 22.695312 18.503906 22.695312 C 23.558594 22.695312 28.152344 24.179688 31.488281 26.574219 Z M 18.503906 0 C 24.25 0 28.90625 4.695312 28.90625 10.488281 C 28.90625 16.28125 24.25 20.976562 18.503906 20.976562 C 12.757812 20.976562 8.101562 16.28125 8.101562 10.488281 C 8.101562 4.695312 12.757812 0 18.503906 0 Z M 18.503906 0 " fill-opacity="1" fill-rule="evenodd"/></g></svg>